<?xml version="1.0"?>
<svg xmlns="http://www.w3.org/2000/svg" width="512" height="512" viewBox="0 0 128 128"><g><path d="M67.472,75.293,62.7,71.52a1.75,1.75,0,1,0-2.17,2.746l.181.143a10.953,10.953,0,0,1-4.454-18.192,1.75,1.75,0,0,0-2.475-2.474A14.441,14.441,0,0,0,61.62,78.2l-1.092.863a1.75,1.75,0,1,0,2.17,2.746l4.774-3.773a1.75,1.75,0,0,0,0-2.746Z"/><path d="M64,40.417A23.583,23.583,0,1,0,87.583,64,23.609,23.609,0,0,0,64,40.417Zm0,43.666A20.083,20.083,0,1,1,84.083,64,20.105,20.105,0,0,1,64,84.083Z"/><path d="M102.568,56.976H95.632a31.951,31.951,0,0,0-4.3-10.374L96.239,41.7a1.749,1.749,0,0,0,0-2.475l-7.46-7.459a1.75,1.75,0,0,0-2.474,0L81.4,36.667a31.937,31.937,0,0,0-10.374-4.3V25.432a1.749,1.749,0,0,0-1.75-1.75H58.726a1.749,1.749,0,0,0-1.75,1.75v6.936a31.937,31.937,0,0,0-10.374,4.3L41.7,31.761a1.75,1.75,0,0,0-2.474,0l-7.46,7.459a1.749,1.749,0,0,0,0,2.475L36.667,46.6a31.951,31.951,0,0,0-4.3,10.374H25.432a1.749,1.749,0,0,0-1.75,1.75V69.274a1.749,1.749,0,0,0,1.75,1.75h6.936a31.951,31.951,0,0,0,4.3,10.374l-4.906,4.907a1.749,1.749,0,0,0,0,2.475l7.46,7.459a1.75,1.75,0,0,0,2.474,0L46.6,91.333a31.937,31.937,0,0,0,10.374,4.3v6.936a1.749,1.749,0,0,0,1.75,1.75H69.274a1.749,1.749,0,0,0,1.75-1.75V95.632a31.937,31.937,0,0,0,10.374-4.3l4.907,4.906a1.75,1.75,0,0,0,2.474,0l7.46-7.459a1.749,1.749,0,0,0,0-2.475L91.333,81.4a31.951,31.951,0,0,0,4.3-10.374h6.936a1.749,1.749,0,0,0,1.75-1.75V58.726A1.749,1.749,0,0,0,102.568,56.976Zm-1.75,10.548H94.192a1.75,1.75,0,0,0-1.724,1.452,28.529,28.529,0,0,1-4.821,11.635,1.75,1.75,0,0,0,.194,2.245l4.686,4.686-4.985,4.985-4.687-4.686a1.751,1.751,0,0,0-2.245-.194,28.545,28.545,0,0,1-11.634,4.822,1.75,1.75,0,0,0-1.452,1.724v6.625H60.476V94.193a1.75,1.75,0,0,0-1.452-1.724A28.545,28.545,0,0,1,47.39,87.647a1.751,1.751,0,0,0-2.245.194l-4.687,4.686-4.985-4.985,4.686-4.686a1.75,1.75,0,0,0,.194-2.245,28.529,28.529,0,0,1-4.821-11.635,1.75,1.75,0,0,0-1.724-1.452H27.182V60.476h6.626a1.75,1.75,0,0,0,1.724-1.452,28.529,28.529,0,0,1,4.821-11.635,1.75,1.75,0,0,0-.194-2.245l-4.686-4.686,4.985-4.985,4.687,4.686a1.749,1.749,0,0,0,2.245.194,28.545,28.545,0,0,1,11.634-4.822,1.75,1.75,0,0,0,1.452-1.724V27.182h7.048v6.625a1.75,1.75,0,0,0,1.452,1.724A28.545,28.545,0,0,1,80.61,40.353a1.749,1.749,0,0,0,2.245-.194l4.687-4.686,4.985,4.985-4.686,4.686a1.75,1.75,0,0,0-.194,2.245,28.529,28.529,0,0,1,4.821,11.635,1.75,1.75,0,0,0,1.724,1.452h6.626Z"/><path d="M66.38,49.76l1.092-.863a1.75,1.75,0,1,0-2.17-2.746l-4.774,3.773a1.75,1.75,0,0,0,0,2.746L65.3,56.443a1.75,1.75,0,1,0,2.17-2.746l-.181-.143a10.952,10.952,0,0,1,4.454,18.191A1.75,1.75,0,0,0,74.22,74.22a14.441,14.441,0,0,0-7.84-24.46Z"/></g></svg>
