<svg id="_x33_0" enable-background="new 0 0 64 64" height="512" viewBox="0 0 64 64" width="512" xmlns="http://www.w3.org/2000/svg"><g><path d="m29.566 25.376c-.197-.052-.388-.12-.588-.16l-.737-.147-2.609 1.957 2.819 2.255z"/><path d="m35.094 37c-1.344-1.989-2.094-4.358-2.094-6.821 0-.987.131-1.942.354-2.862-.59-.487-1.222-.914-1.904-1.252l-1.901 6.654-2.93-2.344-.529.794 1.665 5.831z"/><path d="m24.245 32h-.49l-1.429 5h3.348z"/><path d="m15.56 11.279c.448-.174.931-.279 1.44-.279h.016c.084-1.664 1.034-3.143 2.536-3.895l.491-.246 5.471 3.283-1.029 1.715-4.478-2.687c-.631.49-1.007 1.244-1.007 2.066v6.764c0 1.654 1.346 3 3 3h4c1.654 0 3-1.346 3-3v-7h2c.582 0 1.131.131 1.631.356l.187-.747c.12-.485.182-.985.182-1.486 0-3.376-2.747-6.123-6.123-6.123h-6.641c-.998 0-1.896.555-2.342 1.447l-.186.371-.841.28c-1.116.372-1.867 1.415-1.867 2.593 0 .15.012.3.037.447zm12.229 5.379c-.722 1.445-2.174 2.342-3.789 2.342h-3v-2h3c.853 0 1.619-.474 2-1.236l.105-.211 1.789.895zm-3.274-11.515 5 3-1.029 1.715-5-3z"/><path d="m31 13v4c1.103 0 2-.897 2-2s-.897-2-2-2z"/><path d="m17 17v-4c-1.103 0-2 .897-2 2s.897 2 2 2z"/><path d="m19.758 25.068-.737.147c-.201.04-.396.094-.592.146l1.119 3.919 2.819-2.255z"/><path d="m31 19h-.101c-.29 1.421-1.184 2.624-2.402 3.329l.268.804.605.121c1.69.338 3.272 1.044 4.657 2.044 1.863-4.239 6.069-7.217 10.972-7.289v-7.009h-10.225c-.007.031-.01.063-.017.094l-.425 1.7c.42.633.668 1.391.668 2.206 0 2.206-1.794 4-4 4z"/><path d="m16.549 26.061c-3.325 1.654-5.549 5.09-5.549 8.939v2h9.245l1.666-5.83-.529-.794-2.93 2.344z"/><path d="m26.595 22.947c-.197.024-.392.053-.595.053h-4c-.203 0-.396-.036-.593-.06l-.231.693 2.824 2.117 2.823-2.117z"/><path d="m22.949 29.121.586.879h.93l.586-.879-1.051-.84z"/><path d="m43 52v-1-2-2-2.438c0-.652-.318-1.265-.853-1.638l-3.952-2.767c-.499-.35-.956-.744-1.391-1.157h-27.804v-4c0-5.69 4.05-10.63 9.629-11.746l.605-.121.274-.824c-1.215-.706-2.118-1.89-2.408-3.309h-.1c-2.206 0-4-1.794-4-4 0-.872.288-1.674.764-2.332l-.278-1.668h-10.486v50h42v-5.026c-1.207-.913-2-2.347-2-3.974zm-24-11h8v2h-8zm-10 0h8v2h-8zm2 18h-2v-2h2zm4 0h-2v-2h2zm4 0h-2v-2h2zm20-4h-30v-2h30zm0-4h-30v-2h30zm0-4h-30v-2h30z"/><path d="m45 49h6v2h-6z"/><path d="m48 55c1.304 0 2.416-.836 2.829-2h-5.658c.413 1.164 1.525 2 2.829 2z"/><path d="m49.803 31.217-1.803-1.803-1.803 1.803-1.854-.928-1.118 1.677 3.775 5.034v-4h2v4l3.775-5.034-1.118-1.677z"/><path d="m50.82 20h-5.64c-5.614 0-10.18 4.566-10.18 10.179 0 3.319 1.623 6.437 4.342 8.339l3.952 2.767c1.068.748 1.706 1.973 1.706 3.277v2.438h6v-2.438c0-1.304.638-2.529 1.706-3.277l3.952-2.767c2.719-1.902 4.342-5.02 4.342-8.339 0-5.613-4.566-10.179-10.18-10.179zm-1.82 20.333v4.667h-2v-4.667l-6.225-8.299 2.882-4.323 2.146 1.072 2.197-2.197 2.197 2.197 2.146-1.072 2.882 4.323z"/></g></svg>